# xmcd
# 
# Track frame offsets:
#     150
#     13718
#     28537
#     46354
#     67942
# 
# Disc length: 1160
# 
# Revision: 0
# Processed by: cddbd v1.5.2PL0 Copyright (c) Steve Scherf et al.
# Submitted via: fre:ac v1.0.31
# 
DISCID=35048605
DTITLE=Beth Malcolm - Choose My Company
DYEAR=2019
DGENRE=Acoustic
TTITLE0=People Make Glasgow
TTITLE1=Evergreen
TTITLE2=Ghost Tour
TTITLE3=Choose My Company
TTITLE4=Lighthouse
EXTD=
EXTT0=
EXTT1=
EXTT2=
EXTT3=
EXTT4=
PLAYORDER=
